<?xml version="1.0" encoding="UTF-8"?>
<!DOCTYPE svg PUBLIC "-//W3C//DTD SVG 1.1//EN" "http://www.w3.org/Graphics/SVG/1.1/DTD/svg11.dtd">
<!-- Creator: CorelDRAW X7 -->
<svg xmlns="http://www.w3.org/2000/svg" xml:space="preserve" width="50mm" height="50mm" version="1.1" style="shape-rendering:geometricPrecision; text-rendering:geometricPrecision; image-rendering:optimizeQuality; fill-rule:evenodd; clip-rule:evenodd"
viewBox="0 0 5000 5000"
 xmlns:xlink="http://www.w3.org/1999/xlink">
 <defs>
  <style type="text/css">
   <![CDATA[
    .fil1 {fill:none}
    .fil0 {fill:#FFE799}
    .fil2 {fill:#FFE799;fill-rule:nonzero}
   ]]>
  </style>
 </defs>
 <g id="Layer_x0020_1">
  <metadata id="CorelCorpID_0Corel-Layer"/>
  <path class="fil0" d="M675 1143l-115 0c91,196 142,229 43,227 -34,0 -69,0 -104,0 9,44 90,168 99,220l-170 0c7,38 92,190 110,227l-186 0c6,33 90,187 109,228l-175 0 109 227 -175 0c5,23 14,40 24,60 11,21 17,33 28,55 13,25 47,87 52,113l-180 0c13,29 104,201 109,227l66 0c-14,37 -14,79 -19,130 -21,207 -4,193 -58,238 -13,11 -21,19 -34,31 -39,34 -32,-1 -32,158l600 0 0 -2417c-16,34 -35,93 -45,121l-56 155z"/>
  <path class="fil0" d="M710 1866c677,273 392,818 1094,1249 -173,-193 117,-463 331,-412 357,84 413,510 28,764 -351,232 -809,-54 -948,-357 -251,-549 -292,-1055 -688,-1165 -148,-41 -72,-182 183,-79z"/>
  <g id="_849451600">
   <path class="fil0" d="M1383 2318c533,18 126,-243 -5,0 2,0 4,0 5,0zm-28 60c-5,19 -9,40 -11,64 -19,201 281,37 370,-37l83 -69c-269,318 -547,289 -493,68 140,-565 818,-8 74,-15 -9,-1 -17,-5 -23,-11z"/>
  </g>
  <path class="fil1" d="M1381 2353c606,42 157,-427 -42,22 -85,193 152,236 294,115 85,-72 94,-85 164,-154"/>
  <g id="_849452880">
   <path class="fil0" d="M1900 2222c-4,14 -12,47 -23,86 84,-76 199,-126 297,-72 -134,-9 -263,58 -325,167 -12,40 -24,78 -36,107 -1,9 -2,18 -2,26l-9 0c-7,16 -14,26 -19,28 -14,-5 -23,-15 -27,-28l-1 0 0 -3c-5,-20 -1,-47 11,-76 17,-90 41,-136 63,-242 2,-20 20,-34 39,-32 19,2 34,19 32,39z"/>
  </g>
  <path class="fil1" d="M1864 2218c-9,92 -81,203 -81,318 0,-195 252,-357 391,-300"/>
  <g id="_849447920">
   <path class="fil0" d="M2787 2291c-306,-100 -186,445 -3,20 1,-7 2,-14 3,-20zm43 39c12,113 124,241 353,195l84 -18c-93,40 -199,87 -301,46 -100,-40 -150,-96 -171,-152 -238,436 -429,-312 15,-177 37,-71 94,-88 46,40 -9,24 -18,46 -26,66z"/>
  </g>
  <path class="fil1" d="M2812 2262c-353,-144 -280,531 -27,88 187,-328 -137,-41 147,166 105,76 231,24 335,-9"/>
  <g id="_849226912">
   <g>
    <path class="fil0" d="M2574 1935c-98,234 -359,701 22,642 -439,202 -126,-564 -88,-667 7,-19 28,-28 46,-20 18,7 27,27 20,45z"/>
   </g>
   <path class="fil1" d="M2541 1922c-47,123 -358,819 55,655"/>
   <g>
    <path class="fil0" d="M2303 2193c194,-58 181,-67 385,-39l0 0c-189,36 -186,34 -362,106 -18,6 -39,-3 -45,-22 -6,-18 4,-38 22,-45z"/>
   </g>
   <path class="fil1" d="M2315 2227c175,-61 170,-73 373,-73"/>
  </g>
  <g id="_849228512">
   <g>
    <path class="fil0" d="M2228 2296c1,0 2,0 2,-1 0,0 -1,1 -2,1zm0 1c-38,26 -96,225 -14,319 -117,16 -119,-369 7,-390 19,-1 36,14 38,33 1,19 -13,35 -31,38z"/>
   </g>
   <path class="fil1" d="M2223 2262c-65,4 -121,325 -9,354"/>
   <g>
    <path class="fil0" d="M2244 2092c88,-32 56,25 12,60 4,1 7,1 11,0 -9,7 -4,3 -16,12 -7,4 -14,6 -21,5 -27,14 -52,12 -49,-31 1,-24 29,-69 63,-46z"/>
   </g>
   <path class="fil1" d="M2233 2134c84,-50 -72,71 -17,-28 7,-13 22,-8 35,-8"/>
  </g>
  <path class="fil2" d="M3930 2146l-144 727 -242 -2c-187,-1 -450,-6 -553,-12 0,0 64,-533 119,-828 14,-76 81,-145 128,-197 47,-52 41,-42 85,-81 45,-39 119,-33 170,-34l547 -13c-76,176 -77,213 -101,303 -98,3 -505,12 -514,24 -11,12 -28,29 -39,49 -25,44 -44,96 -54,145 -21,109 -59,231 -66,343 -1,11 57,12 214,9l86 -2 31 -142 -156 3 -4 -1c6,-34 79,-258 92,-283l401 -8z"/>
  <path class="fil2" d="M4920 1720l-262 1158c-275,2 -834,-5 -834,-5 10,-58 80,-419 147,-749 25,-123 107,-249 202,-332 45,-40 93,-60 145,-61l602 -11c-56,127 -82,199 -131,301 -74,1 -457,11 -467,22 -11,13 -27,30 -39,50 -25,43 -44,96 -54,145 -21,109 -41,232 -60,346 0,0 32,9 208,6l86 -2 14 -64 2 1 7 -43 8 -36 -2 0 79 -419 349 -307z"/>
  <rect class="fil0" transform="matrix(0.421401 8.90468E-019 -0.100335 0.156923 2461.85 1720.06)" width="2308" height="397"/>
  <rect class="fil0" transform="matrix(0.421401 8.90468E-019 -0.100335 0.156923 2626.77 1834.05)" width="2308" height="397"/>
  <rect class="fil0" transform="matrix(0.421401 8.90468E-019 -0.100335 0.156923 2690.88 1955.88)" width="2308" height="397"/>
  <g id="_849230976">
   <path class="fil0" d="M4341 3256c-460,-350 587,-481 463,16 -78,310 -850,-18 -1000,-62 -254,-76 -1364,-355 -1298,240 8,68 69,110 115,155 -56,-43 -116,-79 -127,-154 -88,-614 1054,-353 1320,-276 114,32 885,335 945,86 94,-388 -744,-316 -388,-49 12,8 15,25 7,37 -8,12 -25,15 -37,7z"/>
  </g>
  <path class="fil1" d="M4356 3234c-392,-270 467,-450 428,18 -13,154 -401,148 -559,84 -357,-145 -1693,-596 -1726,81 -5,99 55,127 122,188"/>
 </g>
</svg>
